<?xml version="1.0" encoding="utf-8"?>
<!-- Generator: Adobe Illustrator 23.0.3, SVG Export Plug-In . SVG Version: 6.00 Build 0)  -->
<svg version="1.1" id="Layer_1" xmlns="http://www.w3.org/2000/svg" xmlns:xlink="http://www.w3.org/1999/xlink" x="0px" y="0px"
	 viewBox="0 0 900 616.7" style="enable-background:new 0 0 900 616.7;" xml:space="preserve">
<style type="text/css">
	.st0{fill:#A83633;}
	.st1{fill:#FFFFFF;}
</style>
<g>
	<path class="st0" d="M450.2,585c-20.7,0-41.2-3.1-60.7-9.1L84.6,481.1c-12.7-3.9-23.5-11.1-31.3-20.9
		c-8.2-10.1-12.5-22.1-12.5-34.7V190.3c0-25.1,17.6-47.4,43.9-55.6L389.5,40c19.5-6.1,39.9-9.2,60.7-9.2c20.8,0,41.2,3.1,60.8,9.2
		l304.9,94.7c26.2,8.1,43.8,30.5,43.8,55.6v235.3c0,12.6-4.3,24.6-12.6,34.8c-7.7,9.7-18.6,16.9-31.2,20.9l-304.9,94.7
		C491.4,581.9,470.9,585,450.2,585"/>
	<path class="st1" d="M450.2,37.5c19.9,0,39.7,2.9,58.8,8.9l304.9,94.7c23.4,7.2,39.1,27,39.1,49.2v235.3c0,11.3-4,21.9-11.1,30.5
		c-6.8,8.5-16.4,15.1-28,18.7L509,569.5c-19,5.9-38.9,8.8-58.8,8.8c-19.9,0-39.7-2.9-58.8-8.8L86.6,474.7
		c-11.6-3.6-21.3-10.2-28.1-18.7c-7-8.7-11.1-19.3-11.1-30.5V190.3c0-22.2,15.7-41.9,39.2-49.2l304.9-94.7
		C410.5,40.4,430.3,37.5,450.2,37.5 M450.2,24.1c-21.5,0-42.6,3.2-62.8,9.5L82.6,128.3c-29.1,9-48.6,33.9-48.6,62v235.3
		c0,14.2,4.9,27.7,14.1,39c8.7,10.7,20.6,18.7,34.5,23l304.9,94.7c20.2,6.3,41.3,9.4,62.7,9.4c21.4,0,42.5-3.2,62.7-9.4l305-94.7
		c14-4.3,25.9-12.3,34.5-23.1c9.1-11.2,14-24.7,14-38.9V190.3c0-28.1-19.5-53-48.5-62L512.9,33.6C492.8,27.3,471.7,24.1,450.2,24.1"
		/>
	<path class="st1" d="M795.8,310.9c-4.9-4.1-9.8,0.8-11.9,3l-0.4,0.4c-1.7,1.8-3.7,4-6,6.4c-12.4,13.4-33.3,36-39.1,36
		c-0.8,0-2-0.3-2.9-1.5c-1-1.3-2.2-4.5,0-11.9c1.2-3.9,7.2-16.2,18.2-29.1c2-2.4,2.9-5.1,2.5-7.9c-0.4-3.2-2.4-6.1-5.5-8.1
		c-8.5-5.4-10.4-9.7-6.9-16c1.5-2.7,0.5-5.7-2.5-7.5c-2.8-1.7-5.8-1.6-7.8,0.2c-1.6,1.4-2.6,2.7-3.3,4.2
		c-7.2,13.8-17.2,24.4-27.9,35.7c-2.8,3-5.8,6.1-8.7,9.3c-0.3,0.3-0.7,0.6-1,1c-1.8,1.8-3.5,3.5-5.3,5.3
		c-14.7,14.8-29.9,30.1-35.6,30.1c-1.3,0-2.6-0.8-3.5-2c-1-1.4-2.2-4.8,0.5-11.2c2.9-7,7.7-15.5,12.3-23.7
		c4.2-7.5,8.1-14.5,10.8-20.5c0.3-0.7,0.6-2.4-2.7-4c-4-2-11.2-2.8-12.8,0.2l-0.6,1c-0.8,1.3-1.8,3-2.4,3.6
		c-0.2,0.2-0.4,0.4-0.7,0.8c-0.4,0.5-1.6,1.8-2,1.8c0,0-0.1-0.1-0.1-0.2c-3.2-6.5-11.7-11.2-20.1-11.2c-20.4,0-37.4,15.3-45,30.4
		c-3.7,4.4-7.1,8.7-10.1,12.5c-7.9,9.9-14.7,18.4-17.3,18.4H558c-3.3,0-3.3-0.1-4.8-24.4L553,329c-1.6-15.8-4.8-21.9-11.5-21.9
		c-3.9,0-7,4.7-9.7,8.8c-1.7,2.6-3.5,5.3-4.8,5.3c0,0,0,0,0,0c-0.7-0.7-0.6-4.1-0.5-6.9c0.1-3.1,0.2-6.4-0.5-8.4
		c-1.9-6.2-5.5-10.7-9.8-12.1c-3.1-1-6.2-0.4-9.3,1.9c-10.6,8.3-20.5,18.8-26.6,27.9c1.2-7.6,1.3-16.4-2.7-21.3
		c-2-2.5-5-3.8-8.7-3.8c-8.3,0-18,10.5-28.3,21.6l-1.9,2c-0.7,0.6-1.4,1.3-2.1,1.9c-1.8,2-3.6,4-5.4,5.9l-0.5,0.5
		c-0.1,0.1-0.1,0.1-0.2,0.3c-1.9,2-3.7,4-5.6,6c-3.1,3.3-6.3,6.7-9.5,10.2c-3.3,3.4-13.3,13.7-23.2,13.7c-3.1,0-6-2.4-8-6.5
		c-2.8-5.9-3.3-15.5,2.4-22.6c14.9-18.1,29.5-36.8,40.5-51c18.1-23.1,21.2-33.4,29.3-60.8l1.1-3.8c1.7-5.8,2.3-12.9,1.8-21.1
		c-0.9-4.6-2.8-7.7-5.4-9.3c-2.4-1.5-5.5-1.7-9.3-0.6c-7.6,2.5-14.2,7.2-20.7,15c-5.7,7-10.4,15-14.9,22.8c-1.8,3.1-3.7,6.4-5.6,9.5
		c-16.6,27.9-22.8,39.1-31.6,70.8c-1.7,6.1-3,12.7-3.8,19.3c-1,0.6-1.9,1.3-2.8,2.2c-22.7,23.4-36.1,36.5-46.8,33.1
		c-2.4-0.8-5.8-3.5-8-8c-1.5-3-2.9-7.7-1-13.2c0.3-1,4.6-2,8.7-3.1c6.3-1.6,14.9-3.8,21.6-7.9c8.3-5.2,13.6-12.7,14.5-20.6
		c0.6-5.4-0.9-10.3-4.3-13.7c-5.7-5.8-17.4-5.5-25-1.9c-1.7,0.7-2.7,1.1-4.7,2.5c-14.4,10.4-23.5,18-27.5,41.8
		c-2.9,17.6,7.2,35.9,21.1,38.3c23.2,3.9,36-10,52.1-27.5l1.5-1.6c1.6,20.6,9.8,32,23.2,32c19.1,0,29.5-11.3,50.2-34
		c2.3-2.6,4.8-5.3,7.5-8.1c1.5-1.7,3.1-3.4,4.1-5.2c2.9-3.1,5.7-6,5.8-6.1c2.3-2.7,4.4-3.9,6.2-3.3c1.3,0.4,2,1.6,2,2.1
		c0.4,7.7-3.8,31.5-7.1,41.1c-2.1,6.2-2.3,9.8-0.7,12c1.1,1.6,3.2,2.3,6.4,2.3c6.4,0,9.4-6.4,11.8-11.6l0.2-0.3
		c5-10.9,26.1-40.9,29.7-43.1c0.3-0.2,0.6-0.4,0.9-0.7c1-0.8,1.6-1.2,2.7-0.6c1.6,1.2,1.5,2.8,1.3,4.4c-1.6,10.6-2.6,18.6-3.3,24.2
		c-0.5,3.3,0.8,6.1,3.5,7.7c2.6,1.3,4.4,0.3,5.8-0.6c0.3-0.2,0.6-0.3,0.9-0.5c4.4-2.5,7.5-8.2,10.2-13.2c1.2-2.2,2.4-4.4,3.6-6.1
		l0.2-0.3c0.9-1.5,1.5-2.4,3.1-2c1.4,0.3,1.7,1.4,2,3.1c0,0.3,0.1,0.5,0.2,0.8c0.7,2.7,0.8,6,1,9.6c0.3,5.5,0.5,11.2,2.7,15.3
		c3.2,6.1,9.6,10.3,15.4,10.3c8.3,0,14.2-6.9,24.4-19.4c2.2,14,9.5,20.8,22.3,20.8c8.9,0,17.9-7,23.8-11.7c1.4-1.1,2.7-2.1,3.6-2.7
		c0.3-0.2,0.6-0.4,0.8-0.6c0,0,0,0,0,0l0.3,0.6c2.9,5.8,7.9,15.5,19.3,15.5c14.4,0,28.1-14.8,40.2-27.8c3.2-3.5,6.3-6.8,9.2-9.7
		c0.5-0.5,1.1-1,1.6-1.5l0.3-0.2c0.4-0.3,0.7-0.7,1-1l3-3c7.6-7.7,15.5-15.7,21.9-24.8c2.1-2.9,4.4-1.5,8,0.9
		c0.4,0.3,0.8,0.5,1.2,0.8c0.9,0.6,1.4,1.2,1.5,1.8c0.1,0.8-0.5,1.7-1.3,2.8c-0.2,0.3-0.4,0.5-0.6,0.8c-0.6,0.9-1.2,1.7-1.8,2.6
		c-1.5,2.1-2.9,4.1-4.3,6.2c-4.1,6.3-8.6,13.9-11.4,23c-2.4,7.6-1.4,15.5,2.4,20.8c2.6,3.5,6.2,5.4,10.3,5.4
		c15.8,0,39.4-24.5,56.5-42.4c2.5-2.6,4.9-5.1,7.1-7.4c1.4-1.5,2.1-3.6,1.9-5.8C798.2,313.8,797.2,312,795.8,310.9 M605.4,358.7
		c-5.4,0-9.1-5.5-9.1-13.3c0-16.3,16.1-38.2,32.5-38.2c3.4,0,7.2,2.3,9.3,5.5c1.7,2.6,3.1,6.9,0.4,12.9
		C628.3,347.9,617.5,358.7,605.4,358.7 M427.3,222l1.4-2.3c3.7-6.1,7.2-11.9,12.6-16.2c0.8-0.8,1.4-1.3,2.1-1.3
		c0.3,0,0.5,0.1,0.8,0.2c1.5,0.6,1.5,1.6,1.3,3.9l0,0.1c-1.1,8-3.1,15.7-6.2,24.3c-10.7,26.5-18.1,35.8-33,54.4
		c-2.1,2.6-4.4,5.5-6.8,8.6c-0.6,0.8-1.3,1.8-1.9,2.9c-2.4,3.8-5.1,8.2-8.8,6.6c-0.1-0.1-0.3-0.2-0.4-0.6
		C385.9,294.5,416.3,239.5,427.3,222 M313.4,318.6c4.8-10,10.4-13.4,21.9-17.6c3.1-1,5.3-0.9,6,0.1c0.7,1,0,3.8-3.9,8.3
		c-3.5,4.1-10.6,7.4-21.4,10.1l-0.5,0.1c-0.5,0.1-2.1,0.5-2.4,0.2C313.2,319.6,313.1,319.4,313.4,318.6"/>
	<path class="st1" d="M299.1,442c-0.2,0-0.5,0-0.8-0.2c-0.4-0.3-0.4-0.7-0.4-1.2v-2.6c0-1.5-0.1-2.9-0.1-4.4c0-1.7,0.1-3.3,0.1-5
		c0-0.6,0.1-1.2,0-1.8c-0.1-1.4,0.1-2.8,0.2-4.1c0.1-1.2,0-2.4,0.1-3.7c0.2-2,0-3.9,0.2-5.9c0.1-0.6,0.1-1.1,0.1-1.7
		c-0.1-1.9,0-3.8-0.2-5.7c0.7-0.5,1.5-0.7,2.4-0.7c2.8,0.1,5.6,0.1,8.4,0.3c1.4,0.1,2.8,0,4.2,0c3.4-0.1,6.6,0.4,9.5,2
		c0.4,0.2,0.7,0.5,1,0.7c1.7,1.5,2.9,3.2,3.4,5.3c0.2,0.8,0.6,1.7,0.7,2.6c0.1,0.9,0.1,1.8-0.1,2.6c-0.4,1.4-0.9,2.8-2.2,3.8
		c-0.1,0.1-0.2,0.2-0.2,0.3s0.1,0.3,0.3,0.4c1.8,1,2.6,2.6,3.1,4.2c0.5,1.4,0.8,3,0.6,4.5c-0.2,1.2-0.4,2.3-0.9,3.5
		c-0.2,0.4-0.4,0.8-0.7,1.2c-0.8,1.5-2.2,2.5-3.8,3.3c-0.9,0.4-1.7,0.7-2.6,1.1c-0.9,0.4-1.9,0.7-2.9,0.7c-2,0-4,0.4-6,0.4
		c-2.6-0.1-5.2,0.4-7.9,0.4C302.7,442.2,300.9,442.3,299.1,442 M309.2,435.4l4.6-0.2c1.8-0.1,3.6-0.3,5.4-1c0.8-0.3,1.4-0.9,1.7-1.7
		c0.2-0.7,0.4-1.5,0.6-2.3v-0.5c-0.4-1.8-1.5-3-3.6-3.6c-1.3-0.4-2.5-0.5-3.8-0.5c-2.5,0-5,0-7.6-0.1c-0.3,0-0.6,0-0.9,0.3
		c0,3-0.6,6.2-0.4,9.5H309.2z M318,418.7c0.6-0.3,1-0.6,1.2-1.2c0.2-0.5,0.4-1.1,0.4-1.7c0.1-1.4-1.2-3-2.7-3.5
		c-1.2-0.3-2.4-0.5-3.6-0.5c-2.2,0-4.4-0.1-6.5-0.1c-0.3,0-0.6-0.1-1,0.2c-0.1,2.6,0.4,5.1,0.1,7.7c0,0.1,0.1,0.2,0.1,0.3
		c0.4,0.2,0.9,0,1.3,0.1c1.8,0.1,3.8,0.1,5.7,0.1C314.8,420,316.4,419.5,318,418.7"/>
	<path class="st1" d="M356.6,442c-0.2-0.5-0.1-1.1,0.2-1.6l1.3-2.7c0.7-1.4,1.5-2.9,2-4.4c0.2-0.8,0.7-1.5,1-2.3
		c1.2-2.3,2.2-4.7,3.5-7c1.2-2,2.2-4.1,3.1-6.2c0.8-2,1.9-3.8,2.6-5.8c0.3-0.8,0.9-1.5,1.3-2.3c0.6-0.9,1-1.9,1.5-2.9
		c0.2-0.2,0.1-0.5,0.2-0.7c0.1-0.6,0.4-0.8,1.1-1c0.7-0.1,1.5-0.1,2.2-0.1c0.8,0.1,1.6,0,2.3,0c1.2,0,2.5,0,3.7,0.2
		c0.1,0,0.2,0.1,0.3,0.1c0,0,0.1,0.1,0.1,0.1c1,2.3,2.3,4.6,3.4,7c1.2,2.4,2.3,4.9,3.5,7.3c0.2,0.4,0.4,0.8,0.5,1.3
		c0.6,1.6,1.5,3.1,2.2,4.6c0.9,2.2,1.9,4.4,2.9,6.5c1.1,2.5,2.8,4.8,3.9,7.2l0.7,1.7c-0.1,0.6-0.6,0.8-1.2,0.9
		c-1.8,0.1-5,0.1-7.1,0.1c-0.5,0-1.1,0.1-1.3-0.4c-0.4-1.1-0.7-2.2-1.1-3.2c-0.4-1.2-1.2-2.2-1.5-3.3c-0.1-0.3-0.2-0.5-0.5-0.7
		c-3.3,0.3-6.5,0-9.7,0.3c-3.2,0.2-6.4,0-9.6-0.1c-1.5,2.4-2.3,5.3-3.9,7.4c-1.9,0-3.4-0.1-5.3,0c-0.4,0.1-1.2-0.1-1.6,0.1
		C357.3,442.2,356.9,442.3,356.6,442 M378.3,427.1c1.9-0.1,3.9,0.1,5.8-0.2c-0.2-1.1-5.3-10.7-6.3-12.1c-0.1,0.5-0.4,0.9-0.6,1.3
		c-1.3,2.9-2.5,6-4.1,8.8l-0.7,1.5c-0.1,0.2-0.2,0.4,0.1,0.7C374.3,427.1,376.3,427.1,378.3,427.1"/>
	<path class="st1" d="M430,440.9c0.1-1.5,0.2-3,0.1-4.5c0-2,0-3.9-0.1-5.8c-0.1-2.7,0-5.4,0.3-8.1c0.3-3.2,0.4-6.3,0.2-9.5
		c-0.1-1.6,0-3.3,0.1-5v-1.5c0-0.6,0.2-0.9,0.9-1c1.9-0.2,3.8-0.4,5.7-0.1c1,0.2,1.2,0.3,1.2,1.2v2.3c-0.1,2.8-0.2,5.5-0.6,8.2
		c0,0.2-0.1,0.3-0.1,0.4c0,0.1,0.1,0.2,0.1,0.2c0.1,0.1,0.2,0,0.2-0.1c0.4-0.4,0.9-0.8,1.4-1.2c0.2-0.3,0.4-0.5,0.7-0.8
		c1.6-1.4,2.8-3.1,4.4-4.6c1.3-1.2,2.6-2.3,3.6-3.7l0.9-1.1c0.4-0.5,0.9-0.8,1.6-0.7c1.9,0.2,3.8,0,5.7-0.3c0.7-0.1,1.3-0.1,2-0.1
		c0.4,0,0.8,0.1,0.9,0.4c0.1,0.3,0,0.6-0.2,0.9c-0.2,0.3-0.4,0.5-0.6,0.7c-1.2,1-2,2.1-3.1,3.2c-0.7,0.6-1.5,1.3-2.2,2
		c-1.7,1.9-3.4,3.6-5,5.5c-1.4,1.5-2.8,2.9-4.2,4.4c-0.7,0.7-0.7,0.7,0.1,1.4c2.3,2.4,5,4.5,7.3,6.9c1.4,1.4,3,2.7,4.3,4
		c1.6,1.5,3.4,2.9,5.1,4.3c0.4,0.3,0.9,0.7,1.2,1.1c0.2,0.2,0.2,0.4,0.1,0.6c-0.4,0.4-0.8,0.8-1.5,1c-2.4,0.4-4.9,0.5-7.3,0.6
		c-0.3,0-0.6-0.2-0.7-0.3l-6.1-6c-1.5-1.5-3-3-4.7-4.3c-0.7-0.5-1.2-1.1-1.8-1.7c-0.6-0.5-1.2-1-1.8-1.4c-0.4-0.3-0.4-0.1-0.4,0.2
		c0,0.4-0.1,0.8,0,1.2c0.3,3.5,0.1,7,0.1,10.4c0,0.2,0,0.4,0.1,0.6c0.1,0.8-0.2,1.2-1.2,1.3h-0.2c-1.6-0.1-3.2,0.3-4.8,0.3
		C430.4,442.3,429.9,441.8,430,440.9"/>
	<path class="st1" d="M511.7,441.9c-1.5,0-3.1-0.1-4.6,0c-2.3,0.2-4.6,0.2-6.9,0.2c-2.3-0.1-4.6,0-6.8,0h-1
		c-0.7-0.4-0.8-0.7-0.8-1.3c0-0.7,0.2-1.4,0.2-2.1c0-1,0.1-2.1,0.1-3.1c-0.1-0.6,0.1-1.2,0.1-1.8c0.2-2.1,0.1-4.2-0.1-6.3
		c-0.1-2.4,0.4-4.7,0.2-7.1c-0.1-1.3-0.2-2.7-0.2-4c0.1-1.1-0.2-2.1-0.1-3.1c0.1-1.4,0-2.9,0.1-4.4c0.1-0.7-0.1-1.5-0.1-2.3
		c0-0.3-0.1-0.6,0.1-0.9c0.9-0.4,1.8-0.5,2.8-0.6c3.3-0.2,6,0.1,9.2,0.2c2.3,0.1,4.6,0.3,6.9,0.3c1.2,0,2.5-0.1,3.8-0.1
		c2.2,0,4.3,0.1,6.4,0.2c0.4,0.3,0.6,0.6,0.7,1.1c0.1,1.3,0.2,2.5,0,3.7c-0.1,0.4-0.1,0.9-0.1,1.3c-0.1,0.7-0.5,1.1-1.4,1
		c-1.7-0.1-3.4-0.2-5.2-0.2c-0.8,0-1.7,0.1-2.5,0.1c-3.1-0.1-6.1-0.1-9.1-0.3c-1-0.1-2-0.2-3.1,0.1c-0.1,2.7-0.4,5.4-0.4,8
		c0.3,0.3,0.6,0.2,0.9,0.2c2.6,0.1,5.2,0.2,7.8,0.1c1.5-0.1,3.1,0.1,4.6-0.1c0.5-0.1,1-0.1,1.3,0.5c-0.2,1.4-0.1,2.7,0.3,4
		c0.1,0.4,0.1,0.8,0.1,1.3c0,0.5-0.4,0.8-1.1,0.9c-0.6,0.1-1.2,0.1-1.8,0.1c-2.2,0-4.4-0.2-6.6-0.2c-1.5,0-3.1-0.1-4.6,0l-0.4,0.1
		c-0.2,0.3-0.2,0.5-0.2,0.8c0.1,2,0.1,3.9-0.1,5.9c-0.1,0.5,0,1.2,0.2,1.8c3.2,0.2,13.1-0.3,13.9-0.2c0.6,0.1,5.5,0.1,6.6,0.2
		c0.4,0,0.7,0.2,1,0.4c0.2,0.2,0.2,0.4,0.2,0.6c0,1.2,0.2,2.4,0.3,3.6c0,0.4-0.1,0.6-0.3,0.9c-0.5,0.9-1.2,1.1-2.3,0.9
		C516.6,441.8,514.5,441.8,511.7,441.9"/>
	<path class="st1" d="M553.2,442.2c-0.9-0.1-1.3-0.2-1.5-1c-0.1-0.7,0-1.8,0.1-2.4c0.3-1.4,0.1-3.3,0.1-4.6c-0.1-2,0-3.9,0.2-5.9
		c0.1-1.3,0-2.6,0.1-3.9c0.1-2,0.2-3.9,0.1-5.9c-0.2-2.8-0.1-5.5-0.2-8.2c0-0.5,0.1-1.1,0.1-1.6c0-1.8-0.1-2.9,0.2-3.1
		c0.4-0.2,1.8-0.2,2.8-0.2c1.8,0.1,3.7,0.1,5.6,0c2.2-0.1,4.4,0.1,6.6,0.1c1.8,0,3.6,0.1,5.4,0.4c4.4,0.6,7.9,2.6,10.1,6.1
		c0.7,1.2,1.3,2.6,1.4,3.9c0.2,2.8-0.2,5.4-2.6,7.4c-1.7,1.5-3.9,2.4-6.3,2.9l-0.2,0.1c-1.7,0.3-1.5,0.3-0.7,1.5
		c1.1,1.7,2.2,3.5,3.9,4.7c1.6,1.4,3.5,2.5,5.9,2.5c0.9,0,1.1,0.2,1,1c0,1.7,0.2,5.8,0.1,6.2c-0.1,0.5-0.6,0.5-1,0.5
		c-1.4-0.1-2.8-0.1-4.1-0.3c-1.8-0.4-3.5-1.1-4.9-2.2c-1-0.8-1.8-1.8-2.7-2.8c-1.2-1.3-3.5-3.7-4.6-4.9c-1.8-2.2-3-4.3-4.1-5.1
		c-0.9-0.6-1.2-0.6-2.6-0.5c-0.7,0.1-0.9,0.2-0.9,0.7c-0.1,0.8-0.2,1.7-0.2,2.6c-0.1,1.9-0.2,3.9-0.1,5.8c0.1,1.7,0,4-0.1,5.7
		c0,0.6-0.3,0.8-0.9,0.9C557.1,442.3,555.1,442.4,553.2,442.2 M573.7,419.3c1.6-0.7,2.5-1.9,2.3-3.6c-0.2-1.6-1.2-2.7-3-3.3
		c-2.8-1.1-5.8-1.1-8.8-1.1c-1.3,0-2.5,0.1-3.8,0.1c-0.8,0.1-0.9,0.1-0.8,0.8c0,0.7,0.1,1.4,0,2.2c-0.2,1.7,0,3.6-0.1,5.3
		c0,0.5,0.2,0.6,0.7,0.7c0.7,0.1,6,0.1,7.8,0.1C570.1,420.3,572,420.1,573.7,419.3"/>
	<path class="st1" d="M649.7,406c-0.8,1.3-1.7,2.5-2.8,3.7c-1.5,1.6-3.1,3.2-4.4,5l-1.8,2.2c-0.3,0.4-0.7,0.7-1.1,1l-2,2.2
		c0.1,0-3.1,3.7-3.1,3.7c-0.2,0.2-0.2,0.4-0.2,0.7c-0.2,3.1-0.5,7.3-0.5,10.5c0,1.3,0,2.7-0.1,4c-0.1,0.7,0,1.5,0,2.2
		c0,0.5,0,0.6-0.6,0.7c-1.7,0.5-3.9,0.3-5.7,0.4c-0.9,0.1-1.3-0.4-1.2-1.2c0.2-1.6,0.3-3.2,0.3-4.8c0,0.9,0.4-10,0.4-9.5
		c0-0.7-0.1-1.3-0.2-2c-0.1-0.5-0.4-0.8-0.8-1.2c-1.1-1.2-4.2-5.5-5.3-6.6c-0.7-0.8-1.5-1.5-2.3-2.3c-0.9-0.9-1.8-1.8-2.5-2.8
		c-0.7-0.9-1.9-2-2.6-3c-0.7-0.9-1.4-1.6-2.3-2.4l-0.4-0.4c-0.1-0.1-0.4-0.1-0.4-0.3c0.1-0.2,0.3-0.5,0.7-0.5
		c2.1,0.1,4.5-0.1,6.3,0.1c0.6,0.1,1.2,0.1,1.8,0.2c0.5,0.1,0.8,0.2,0.9,0.6c0.1,0.5,0.6,0.8,1,1.2c1.1,1.4,2.8,3,4.1,4.3
		c0.6,0.5,1,1.2,1.5,1.9c0.9,1,1.9,2,2.8,3c0.6,0.8,1.3,1.9,1.9,1.2c0.9-1.1,1.8-2.2,2.7-3.4c0.3-0.4,0.7-0.9,1.1-1.2
		c0.7-0.6,1-1.4,1.6-2.1c0.5-0.7,1.4-1.6,2-2.2c0.6-0.6,1-1.3,1.4-1.9c0.3-0.4,0.7-0.8,1-1.2c0.2-0.3,0.6-0.4,0.9-0.4
		c0.8-0.1,1.6,0.1,2.4,0.1c1.2,0,2,0.1,3.1-0.1c0.6,0,1.2-0.1,1.8-0.1C649.8,405.1,650.1,405.5,649.7,406"/>
	<path class="st1" d="M290.3,255.8c9.2-8.8,13.6-20.4,12.9-33.7c-0.7-8.1-4.3-14.4-10.8-18.6c-11-7.1-30.3-7.5-49.3-0.9
		c-23,7.7-44.8,21.5-68.5,43.4c-2.3,2.1-3.5,3.6-4.5,4.8c-0.5,0.7-1,1.3-1.7,2c-6.1,6.6-4.7,11-2.5,13.6c1.3,1.7,2.9,2.6,5.2,3
		c2.7,0,5.7-1.7,8.2-4.7c2.7-2.7,5.1-5.1,7.3-7.5c14.9-15.3,23.9-24.5,55.2-36.9c13.7-5.9,24.6-7.1,35.3-3.8
		c6.5,1.8,8.6,4.4,8.4,10.9c0.2,6.7-2.4,12.6-8.5,19.6c-11.2,12.2-25.8,19-47.4,21.8l-0.3,0.1c6.2-10.3,9.9-15.8,14.1-20.9
		c2.7-4.1,2.3-8.1-1-10.7c-3.2-2.8-6.3-1.9-7.7-1.5c-0.2,0.1-0.4,0.1-0.7,0.2c-3.3,1.3-5.8,3.7-7.6,7l-3.9,4.9c-0.7,1-1.4,2-2.1,3
		c-2.2,3.1-4.6,6.3-6.4,9.6c-1.7,3.1-4.4,7.3-7.4,12.2c-3.6,5.8-7.7,12.3-11.1,18.3c-1.7,2.9-2.7,2.7-5.5,2.1l-0.8-0.2
		c-22.3-4.6-46,2.6-63.2,19.4c-20.2,19.6-28.9,50.1-21.6,75.7c6.6,23.9,18.1,37.1,37.3,42.9c9.5,2.8,14.1,3.7,24.1,3.7
		c18.9,0,34.5-3.8,47.8-11.6c13-7.8,22.9-14.9,31.3-22.4c21.4-18.1,33.2-41.5,35-69.4c1.6-23.3-5.7-41-21.7-52.7l0.2-0.8
		C269.6,273.5,279.8,266.5,290.3,255.8 M174.9,326.8c-2.7,5.1-5.4,10-8.4,15.2c-1.3,2.2-2.6,4.5-3.8,6.8l-1.3,2.4
		c-4,7.2-7.5,13.4-6.2,17.9c0.5,1.6,1.6,2.8,3.2,3.7c1.8,1.2,3.7,1.5,5.7,1c3.2-0.8,6.3-3.7,8.9-8.4c2.3-3.8,4.5-7.8,6.7-11.7
		c2.2-3.9,4.5-7.9,6.7-11.7l3.5-6.1c0.5-1,1.1-2,1.6-3c0.8-1.4,1.5-2.8,2.2-4.3c1.1-2.2,2.4-4.4,3.7-6.8c0.7-1.3,1.5-2.6,2.3-4.1
		l1-2.6c2.5,1.1,4.8,2.8,7.1,4.4c5.2,3.6,10.1,7,14.5,1.4c2-2.6,2.8-5.1,2.5-7.6c-0.4-2.8-2.3-5.5-5.6-8c-2.9-2.1-7.3-5.4-8.4-6.3
		c0.8-2.1,7.6-12.9,8.9-14.4c5.4,0.5,13.2,3.9,20.1,6.8c1.2,0.5,2.4,1,3.4,1.5c5.1,2.4,9,6.1,11.9,11.4c6.2,11.8,7.8,24.4,5.2,39.5
		l0,0c-3.1,19.6-13.7,36.3-32.5,50.9c-13.5,10.4-26.1,16.9-40.9,21c-18.3,5.1-39.2-1.3-39.4-1.4c-14.2-4.1-22.7-14.2-26-31.1
		c-3.6-18,2.5-39.6,15.6-55c11-12.9,25.6-20,41.4-20c0.6,0,1.2,0,1.8,0l4.1,0.4L174.9,326.8z"/>
	<path class="st1" d="M363.7,165.8c-0.1,0.1-0.3,0.1-0.4,0.2c-0.1,0-0.2,0.1-0.3,0.1c-0.1,0-0.2,0.1-0.3,0.1
		c-0.1,0.1-0.2,0.1-0.3,0.1c-0.1,0-0.1,0.1-0.2,0.1c-0.1,0-0.1,0.1-0.2,0.1c-0.1,0-0.1,0.1-0.2,0.1c-0.1,0-0.1,0.1-0.2,0.1
		c-0.1,0-0.2,0.1-0.3,0.1c-0.1,0-0.2,0.1-0.3,0.1c-0.2,0-0.3,0.1-0.5,0.1c-0.3,0.1-0.5,0.2-0.8,0.2c-0.2,0-0.4,0.1-0.6,0.1
		c-0.2,0-0.3,0-0.5,0.1c-0.3,0.1-0.6,0.1-0.9,0.1c-0.2,0-0.4,0-0.6,0c-0.1,0-0.3,0-0.4,0c-0.2,0-0.4,0-0.6,0c-0.3,0-0.5,0-0.8-0.1
		c-0.1,0-0.3-0.1-0.4-0.1c-0.1,0-0.2-0.1-0.3-0.2c-0.1-0.1-0.1-0.2-0.1-0.3c0-0.2,0.1-0.3,0.1-0.5c0.1-0.4,0.2-0.8,0.3-1.2
		c0-0.1,0-0.2,0.1-0.3c0-0.1,0.1-0.2,0.1-0.4c0-0.1,0.1-0.3,0.1-0.4c0.1-0.2,0.2-0.5,0.2-0.7c0-0.1,0.1-0.2,0.1-0.3
		c0-0.2,0.1-0.4,0.1-0.5c0-0.1,0-0.2,0.1-0.3c0,0,0-0.1,0-0.1c0-0.2,0.1-0.3,0.1-0.4c0.1-0.1,0.1-0.3,0.2-0.4
		c0.1-0.1,0.2-0.2,0.3-0.2c0.1,0,0.1,0,0.2,0c0.2,0,0.4,0,0.6,0.1c0.2,0,0.3,0,0.4,0.1c0.2,0,0.3,0,0.5,0c0.3,0,0.6,0,0.8,0
		c0.2,0,0.3,0,0.5-0.1c0.2,0,0.4-0.1,0.5-0.1c0.1,0,0.2,0,0.4-0.1c0.1,0,0.2-0.1,0.3-0.1c0,0,0.1,0,0.1,0c0.1,0,0.2-0.1,0.3-0.1
		c0.1-0.1,0.1-0.1,0.2-0.1c0.1,0,0.2-0.1,0.3-0.1c0.1-0.1,0.3-0.1,0.4-0.2c0.2-0.1,0.3-0.2,0.4-0.3c0.2-0.1,0.3-0.2,0.5-0.3
		c0.1-0.1,0.2-0.2,0.3-0.3c0.2-0.2,0.3-0.4,0.5-0.7c0.1-0.2,0.1-0.5,0.1-0.7c0-0.1,0-0.1,0-0.2c0,0,0-0.1-0.1-0.1
		c-0.1-0.1-0.1-0.2-0.2-0.2c-0.1-0.1-0.3-0.2-0.4-0.3c0,0,0,0,0,0c-0.2,0-0.3-0.1-0.5-0.1c-0.2,0-0.4,0-0.6,0c-0.1,0-0.3,0-0.4,0.1
		c-0.2,0-0.4,0.1-0.5,0.1c-0.2,0.1-0.4,0.1-0.6,0.2c-0.2,0.1-0.3,0.1-0.4,0.1c-0.2,0.1-0.3,0.1-0.5,0.1c-0.1,0-0.2,0.1-0.4,0.1
		c-0.1,0-0.3,0.1-0.4,0.1c-0.1,0-0.2,0.1-0.3,0.1c-0.1,0-0.2,0.1-0.4,0.1c-0.1,0-0.2,0.1-0.3,0.1c-0.2,0.1-0.3,0.1-0.5,0.2
		c-0.2,0-0.3,0.1-0.5,0.1c-0.3,0.1-0.5,0.1-0.8,0.1c-0.3,0.1-0.7,0.1-1,0.1c-0.2,0-0.4,0-0.6,0c-0.2,0-0.3,0-0.5,0
		c-0.1,0-0.2,0-0.4,0c-0.2,0-0.4-0.1-0.6-0.1c-0.2,0-0.4-0.1-0.6-0.2c-0.2,0-0.3-0.1-0.5-0.2c-0.3-0.2-0.7-0.3-1-0.6
		c-0.2-0.2-0.4-0.3-0.6-0.5c-0.1-0.1-0.2-0.1-0.2-0.2c-0.1,0-0.1-0.1-0.1-0.1c-0.1-0.1-0.1-0.2-0.2-0.2c-0.1-0.1-0.2-0.2-0.2-0.2
		c0-0.1-0.1-0.1-0.1-0.1c0,0,0,0,0-0.1c-0.2-0.3-0.3-0.5-0.5-0.8c0,0,0-0.1-0.1-0.1c0,0,0-0.1,0-0.1c-0.1-0.1-0.1-0.2-0.2-0.3
		c0-0.1-0.1-0.1-0.1-0.2c0-0.1,0-0.1-0.1-0.2c-0.1-0.3-0.2-0.6-0.2-0.8c-0.1-0.3-0.1-0.6-0.1-0.9c0-0.2,0-0.4,0-0.6
		c0-0.2,0-0.4,0-0.6c0-0.2,0.1-0.4,0.1-0.6c0-0.1,0.1-0.3,0.1-0.4c0.1-0.2,0.1-0.4,0.2-0.6c0.1-0.3,0.2-0.5,0.3-0.8
		c0.2-0.4,0.4-0.8,0.7-1.2c0.2-0.3,0.4-0.5,0.5-0.7c0.1-0.1,0.1-0.2,0.2-0.3c0.1-0.1,0.2-0.2,0.3-0.3c0.1-0.1,0.2-0.2,0.3-0.3
		c0.1-0.1,0.2-0.1,0.3-0.2c0.1-0.1,0.2-0.2,0.3-0.3c0.1-0.1,0.1-0.1,0.2-0.2c0.1-0.1,0.1-0.1,0.2-0.2l0,0c0.1,0,0.2-0.2,0.3-0.2
		l0.1-0.1c0,0,0,0,0-0.1c0.1-0.1,0.1-0.1,0.2-0.1c0,0,0.1-0.1,0.1-0.1c0,0,0-0.1,0.1-0.1c0.2-0.1,0.4-0.3,0.6-0.4
		c0.2-0.1,0.4-0.3,0.6-0.4c0,0,0.1,0,0.1,0c0,0,0,0,0.1,0c0.1,0,0.1-0.1,0.2-0.1c0.1,0,0.1,0,0.1-0.1c0,0,0.1-0.1,0.1-0.1
		c0.1,0,0.1-0.1,0.2-0.1l0,0c0.1-0.1,0.2-0.1,0.3-0.1c0.1-0.1,0.2-0.1,0.3-0.1l0,0c0.1-0.1,0.2-0.1,0.3-0.1c0.1,0,0.2-0.1,0.2-0.1
		c0.1-0.1,0.2-0.1,0.3-0.1c0.2-0.1,0.4-0.1,0.5-0.2c0.2-0.1,0.3-0.1,0.5-0.2c0.2-0.1,0.4-0.1,0.5-0.1c0.3-0.1,0.5-0.1,0.8-0.2
		c0.3,0,0.5-0.1,0.8-0.1c0.3,0,0.6-0.1,0.8-0.1c0.2,0,0.4,0,0.6,0c0.2,0,0.3,0,0.5,0c0.2,0,0.4,0,0.6,0c0.1,0,0.2,0,0.2,0
		c0.1,0,0.2,0,0.3,0.1c0.1,0.1,0.2,0.2,0.2,0.3c0,0.1,0,0.2,0,0.3c0,0.2-0.1,0.5-0.2,0.7c0,0,0,0.1,0,0.2c0,0.2-0.1,0.4-0.2,0.7
		c0,0.2-0.1,0.3-0.1,0.5c0,0.2-0.1,0.4-0.1,0.5c0,0.2-0.1,0.3-0.1,0.6c0,0,0,0.1,0,0.2c-0.1,0.3-0.1,0.5-0.2,0.8
		c0,0.2-0.1,0.3-0.1,0.5c0,0.2-0.1,0.4-0.1,0.5c0,0.1,0,0.1-0.1,0.2c0,0.1-0.1,0.2-0.2,0.2c0,0,0,0-0.1,0c-0.1,0-0.2,0.1-0.4,0.1
		c-0.2,0-0.4-0.1-0.6-0.1c-0.1,0-0.2,0-0.2,0c-0.2,0-0.4,0-0.7,0c-0.1,0-0.3,0-0.4,0c-0.1,0-0.3,0-0.4,0c-0.2,0-0.4,0.1-0.6,0.1
		c-0.1,0-0.3,0.1-0.3,0.1c-0.1,0-0.2,0.1-0.3,0.1c-0.1,0-0.1,0.1-0.2,0.1c-0.1,0-0.2,0.1-0.3,0.2c-0.3,0.1-0.5,0.3-0.7,0.4
		c-0.1,0.1-0.1,0.1-0.2,0.2c-0.1,0.1-0.1,0.1-0.2,0.2c-0.1,0.1-0.1,0.1-0.2,0.1c-0.1,0.1-0.2,0.2-0.2,0.3c-0.1,0.1-0.2,0.3-0.3,0.4
		c-0.1,0.2-0.1,0.4-0.2,0.6c0,0.1,0,0.3,0.1,0.4l0,0c0,0,0,0.1,0.1,0.1c0,0.1,0.1,0.1,0.1,0.1c0.1,0.1,0.2,0.2,0.4,0.2
		c0.2,0.1,0.4,0.1,0.6,0.1c0.2,0,0.5-0.1,0.8-0.1c0.1,0,0.3-0.1,0.5-0.1c0.1,0,0.3-0.1,0.4-0.1c0.2-0.1,0.5-0.1,0.7-0.2
		c0.1,0,0.3-0.1,0.4-0.1c0.1,0,0.2-0.1,0.4-0.1c0.2,0,0.4-0.1,0.5-0.2c0.1,0,0.2-0.1,0.3-0.1c0.2,0,0.3-0.1,0.5-0.1
		c0.1,0,0.2-0.1,0.4-0.1c0.1-0.1,0.3-0.1,0.5-0.1c0.1,0,0.1,0,0.2-0.1c0.3,0,0.6-0.1,0.9-0.2c0.3,0,0.6-0.1,0.9-0.1
		c0.3,0,0.6,0,0.8,0c0.1,0,0.3,0,0.4,0c0.1,0,0.2,0,0.4,0c0.2,0,0.3,0.1,0.5,0.1c0.2,0,0.4,0.1,0.6,0.1c0.2,0,0.4,0.1,0.7,0.2
		c0.3,0.1,0.6,0.3,0.9,0.5c0.2,0.1,0.4,0.3,0.6,0.4c0.1,0.1,0.2,0.1,0.2,0.2c0,0,0.1,0.1,0.1,0.1c0.1,0,0.1,0.1,0.1,0.1
		c0.1,0.1,0.1,0.1,0.2,0.2c0,0.1,0.1,0.1,0.1,0.1c0,0,0,0,0,0.1c0,0.1,0.1,0.1,0.1,0.2c0,0,0.1,0.1,0.1,0.1c0,0,0,0,0,0.1
		c0.1,0.1,0.2,0.2,0.2,0.4l0,0.1c0,0.1,0,0.1,0,0.1c0,0.1,0.1,0.1,0.1,0.2c0,0.1,0.1,0.1,0.1,0.1c0,0,0,0,0,0
		c0.1,0.1,0.1,0.2,0.1,0.3c0,0.1,0.1,0.1,0.1,0.2c0,0.1,0,0.1,0.1,0.2c0,0,0.1,0.1,0,0.1c0.1,0.2,0.1,0.4,0.2,0.6
		c0.1,0.3,0.1,0.5,0.1,0.8c0,0.3,0.1,0.7,0,1c0,0.2,0,0.3,0,0.5c0,0.2-0.1,0.3-0.1,0.5c0,0.2-0.1,0.5-0.1,0.7
		c-0.1,0.1-0.1,0.3-0.1,0.4c-0.1,0.2-0.1,0.4-0.2,0.6c-0.1,0.1-0.1,0.3-0.2,0.4c-0.1,0.2-0.1,0.4-0.2,0.5c-0.1,0.2-0.3,0.5-0.4,0.7
		c-0.1,0.2-0.3,0.5-0.5,0.7c-0.1,0.2-0.2,0.3-0.3,0.4c-0.1,0.1-0.2,0.2-0.3,0.3c0,0-0.1,0.1-0.1,0.1c-0.1,0.1-0.2,0.1-0.2,0.2
		c-0.1,0.1-0.2,0.2-0.3,0.3c-0.1,0.1-0.1,0.1-0.2,0.2c0,0-0.1,0-0.1,0.1c0,0,0,0,0,0c-0.1,0.1-0.3,0.2-0.4,0.3
		c-0.2,0.1-0.4,0.3-0.5,0.4c0,0-0.1,0-0.1,0.1c-0.4,0.2-0.8,0.5-1.2,0.7l0,0C363.9,165.6,363.8,165.7,363.7,165.8"/>
	<path class="st1" d="M390.3,151.2c0,0-0.1,0-0.1,0c0,0-0.1,0-0.1,0c0,0-0.1,0-0.1,0c0,0-0.1,0-0.1-0.1c0,0,0,0-0.1,0
		c0,0,0,0-0.1-0.1c0,0,0-0.1-0.1-0.1c0,0,0,0,0-0.1c-0.1-0.1-0.1-0.3-0.2-0.5c-1.3-3.1-2.5-6.3-3.8-9.4c-1.3-3.2-2.6-6.5-3.9-9.7
		c0,0,0-0.1,0-0.1c0-0.1,0-0.2-0.1-0.3c0,0,0-0.1,0-0.2c0-0.1,0-0.2,0.1-0.2c0,0,0-0.1,0.1-0.1c0.1,0,0.1,0,0.2-0.1c0,0,0,0,0.1,0
		c0.6-0.2,1.1-0.5,1.7-0.7c1-0.4,2.1-0.8,3.1-1.3c0,0,0.1,0,0.1,0c0.1,0,0.1,0,0.2,0c0.1,0,0.1,0,0.1,0c0.1,0,0.1,0,0.2,0.1
		c0,0,0,0,0.1,0c0,0.1,0.1,0.1,0.1,0.1c0.1,0.1,0.2,0.3,0.2,0.5c2.5,6.3,5.1,12.6,7.6,18.9c0.1,0.2,0.2,0.4,0.2,0.6c0,0,0,0.1,0,0.1
		c0,0,0,0,0,0.1c0,0.1,0,0.1,0,0.2c0,0,0,0.1,0,0.1c0,0.1,0,0.1-0.1,0.2c0,0,0,0.1-0.1,0.1c0,0,0,0,0,0.1c-0.1,0-0.1,0.1-0.2,0.1
		c-0.1,0-0.2,0.1-0.3,0.2c-1.4,0.5-2.7,1.1-4.1,1.7c-0.1,0-0.1,0-0.2,0.1C390.5,151.1,390.4,151.2,390.3,151.2"/>
	<path class="st1" d="M414,142.9c-0.2,0-0.4-0.1-0.5-0.3c0-0.1-0.1-0.2-0.1-0.2c0-0.2-0.1-0.3-0.1-0.5c-0.6-3.3-1.3-6.6-1.9-10
		c-0.7-3.4-1.3-6.8-2-10.2c0-0.1,0-0.1,0-0.2c0-0.1,0-0.3,0-0.4c0-0.1,0.1-0.2,0.3-0.3c0.1-0.1,0.2-0.1,0.4-0.1
		c1.9-0.4,3.8-0.7,5.6-1.1c0.1,0,0.1,0,0.2,0c0,0,0.1,0,0.1,0c0.2,0,0.3,0,0.4,0.1c0.2,0.1,0.3,0.2,0.5,0.3c0,0.1,0.1,0.1,0.2,0.2
		c0.1,0.1,0.1,0.1,0.2,0.2c0.2,0.1,0.3,0.3,0.4,0.4c0.2,0.2,0.3,0.3,0.5,0.5c0.1,0.1,0.3,0.3,0.4,0.4c0.1,0.1,0.2,0.2,0.3,0.3
		c0.1,0.1,0.3,0.2,0.4,0.3c0.1,0.1,0.3,0.3,0.4,0.4c0.1,0.1,0.2,0.2,0.3,0.2c0.1,0.1,0.2,0.2,0.3,0.3c0.1,0.1,0.2,0.2,0.2,0.2
		c0.1,0,0.2,0.1,0.2,0.2c0.1,0.1,0.2,0.2,0.2,0.2c0,0,0.1,0.1,0.1,0.1c0.2,0.2,0.3,0.3,0.4,0.4c0.2,0.2,0.3,0.3,0.5,0.5
		c0.1,0.1,0.3,0.3,0.5,0.4c0.2,0.2,0.4,0.4,0.6,0.6c0.2,0.2,0.4,0.4,0.6,0.6c0.1,0.1,0.2,0.1,0.2,0.2c0.2,0.2,0.3,0.3,0.5,0.5
		c0.1,0.1,0.1,0.1,0.2,0.2c0.1,0.1,0.2,0.2,0.4,0.4c0.1,0.1,0.2,0.2,0.3,0.3c0,0.1,0.1,0.1,0.2,0.2c0,0,0.1,0.1,0.1,0.1
		c0.1,0.1,0.2,0.2,0.3,0.3c0.1,0.1,0.2,0.2,0.3,0.3c0.1,0.1,0.2,0.2,0.3,0.3c0.1,0.1,0.2,0.2,0.3,0.3c0,0,0.1,0.1,0.1,0.1
		c0.1,0.1,0.2,0.2,0.3,0.3c0,0.1,0.1,0.1,0.2,0.1c0.1,0,0.2,0,0.2,0c0.1,0,0.1,0,0.1-0.1c0-0.1,0.1-0.2,0-0.3c0-0.1,0-0.1,0-0.2
		c0,0,0,0,0-0.1c0-0.2-0.1-0.5-0.1-0.7c-0.6-3.3-1.3-6.7-1.9-10.1c0-0.1,0-0.1,0-0.2c0-0.1,0-0.1,0-0.2c0,0,0,0,0-0.1
		c0-0.2,0.1-0.4,0.2-0.5c0.1-0.1,0.2-0.1,0.4-0.1c1.5-0.3,3-0.6,4.5-0.9c0.2,0,0.3-0.1,0.5-0.1c0.1,0,0.2,0,0.3,0
		c0.2,0,0.3,0.1,0.4,0.3c0.1,0.1,0.1,0.2,0.1,0.3c0,0.1,0,0.2,0.1,0.3c1.3,6.6,2.5,13.2,3.8,19.8c0,0.1,0,0.2,0.1,0.3
		c0,0,0,0.1,0,0.1c0,0,0,0.1,0,0.1c0,0.1,0,0.2,0.1,0.2c0,0.1,0,0.3,0,0.4c0,0.1-0.1,0.2-0.2,0.3c-0.1,0.1-0.2,0.1-0.4,0.1
		c-1.9,0.4-3.8,0.7-5.7,1.1c-0.1,0-0.2,0-0.3,0c-0.1,0-0.2,0-0.2,0c-0.2-0.1-0.4-0.2-0.6-0.3c-0.2-0.2-0.4-0.4-0.6-0.6
		c-0.2-0.1-0.3-0.3-0.4-0.4c-0.1-0.1-0.2-0.2-0.3-0.3c-0.1-0.1-0.2-0.2-0.2-0.2c-0.1-0.1-0.2-0.2-0.3-0.3c-0.1-0.1-0.2-0.2-0.4-0.4
		c-0.1-0.1-0.2-0.2-0.3-0.3c-0.1-0.1-0.1-0.1-0.2-0.2c-0.1-0.1-0.2-0.2-0.3-0.4c-0.2-0.2-0.3-0.3-0.5-0.5c-0.1-0.1-0.2-0.2-0.3-0.3
		c-0.1-0.1-0.3-0.3-0.4-0.4c-0.1-0.1-0.2-0.2-0.3-0.3c-0.1-0.1-0.2-0.2-0.3-0.3c-0.1-0.1-0.2-0.1-0.2-0.2c-0.2-0.2-0.3-0.4-0.5-0.5
		c-0.2-0.1-0.3-0.3-0.4-0.4c-0.1-0.1-0.1-0.1-0.2-0.2c-0.1-0.1-0.2-0.2-0.3-0.2c-0.1-0.1-0.2-0.3-0.4-0.4c-0.1-0.1-0.2-0.2-0.3-0.3
		c-0.1-0.1-0.2-0.2-0.3-0.3c-0.1-0.1-0.2-0.2-0.3-0.3c-0.2-0.1-0.3-0.2-0.4-0.4c-0.1-0.1-0.2-0.2-0.3-0.3c-0.1-0.1-0.2-0.2-0.4-0.4
		c0-0.1-0.1-0.1-0.2-0.2c0-0.1-0.1-0.1-0.2-0.2c-0.1-0.1-0.1-0.1-0.2-0.2c-0.2-0.1-0.3-0.3-0.5-0.5c-0.1-0.1-0.2-0.3-0.4-0.4
		c-0.1-0.1-0.2-0.1-0.3-0.2c-0.1,0-0.3,0-0.3,0.2c0,0.1,0,0.1,0,0.2c0,0.2,0.1,0.5,0.1,0.7c0.7,3.5,1.3,7,2,10.5c0,0.1,0,0.1,0,0.2
		c0,0.1,0,0.3,0,0.4c0,0.1-0.1,0.2-0.3,0.3c-0.1,0.1-0.3,0.1-0.4,0.1c-1.6,0.3-3.2,0.6-4.8,0.9C414.3,142.9,414.2,142.9,414,142.9"
		/>
	<path class="st1" d="M464.9,138.8c-0.1,0-0.1,0-0.2,0h-0.1c-0.1,0-0.2,0-0.3,0c-0.2,0-0.3-0.1-0.5-0.1c-0.1,0-0.2,0-0.3-0.1
		c-0.1,0-0.2,0-0.3-0.1c-0.1,0-0.1,0-0.2,0c-0.1,0-0.2-0.1-0.3-0.1c-0.1,0-0.2-0.1-0.3-0.1c-0.2-0.1-0.4-0.1-0.6-0.2
		c-0.2-0.1-0.4-0.1-0.5-0.2c-0.2-0.1-0.3-0.1-0.4-0.2c-0.2-0.1-0.3-0.2-0.5-0.2c-0.2-0.1-0.5-0.3-0.7-0.4c-0.2-0.1-0.4-0.3-0.6-0.4
		c-0.2-0.1-0.4-0.3-0.5-0.4c-0.2-0.1-0.4-0.3-0.5-0.5c-0.2-0.1-0.4-0.3-0.5-0.5c-0.2-0.2-0.4-0.5-0.6-0.7c-0.1-0.2-0.3-0.3-0.4-0.5
		c-0.1-0.2-0.3-0.4-0.4-0.6c-0.1-0.2-0.3-0.4-0.4-0.6c-0.1-0.2-0.2-0.3-0.3-0.5c-0.1-0.2-0.2-0.4-0.3-0.5c-0.1-0.3-0.2-0.6-0.3-0.9
		c-0.1-0.1-0.1-0.3-0.2-0.4c0-0.1-0.1-0.2-0.1-0.3c-0.1-0.2-0.1-0.4-0.2-0.6c0-0.2,0-0.3-0.1-0.5c0-0.1-0.1-0.2,0-0.3
		c0,0,0-0.1,0-0.1c0-0.1,0-0.2-0.1-0.3c0-0.1,0-0.2,0-0.3c0-0.1,0-0.2,0-0.3l0,0c0-0.1-0.1-0.2,0-0.4c0-0.1,0-0.1,0-0.2l0-0.1
		c0-0.1,0-0.1,0-0.2c0,0,0-0.1,0-0.1c0,0,0-0.1,0-0.1c0-0.3,0-0.5,0-0.7c0-0.3,0-0.5,0-0.7c0,0,0-0.1,0-0.1c0,0,0,0,0-0.1
		c0-0.1,0-0.1,0-0.2c0,0,0-0.1,0-0.1l0,0c0-0.1,0-0.2,0.1-0.3c0-0.1,0-0.3,0-0.4l0,0c0-0.1,0-0.2,0-0.3c0-0.2,0.1-0.3,0.1-0.4
		c0-0.1,0.1-0.3,0.1-0.4c0.1-0.2,0.1-0.5,0.2-0.7c0.1-0.2,0.2-0.5,0.3-0.7c0.1-0.3,0.2-0.5,0.3-0.7c0.1-0.2,0.2-0.3,0.2-0.5
		c0.2-0.2,0.3-0.5,0.5-0.8c0.1-0.1,0.2-0.3,0.3-0.4c0.1-0.2,0.3-0.4,0.4-0.6c0.1-0.1,0.3-0.3,0.4-0.5c0.2-0.2,0.5-0.5,0.7-0.7
		c0.1-0.1,0.2-0.2,0.4-0.3c0.1-0.1,0.2-0.2,0.3-0.3c0.1-0.1,0.2-0.1,0.2-0.2c0.1-0.1,0.3-0.2,0.5-0.3c0.2-0.1,0.4-0.2,0.6-0.4
		c0.2-0.1,0.3-0.2,0.5-0.3c0.2-0.1,0.4-0.2,0.6-0.3c0.3-0.1,0.5-0.2,0.8-0.3c0.2-0.1,0.4-0.1,0.5-0.2c0.2-0.1,0.3-0.1,0.5-0.1
		c0.2-0.1,0.3-0.1,0.5-0.1c0.1,0,0.2,0,0.3-0.1c0.1,0,0.2-0.1,0.3-0.1c0.1,0,0.1,0,0.2,0c0.1,0,0.1,0,0.2,0c0.1,0,0.2,0,0.3-0.1l0,0
		c0.1,0,0.2,0,0.3,0c0.1,0,0.2,0,0.3-0.1c0,0,0.1,0,0.2,0c0,0,0.1,0,0.1,0c0,0,0.1,0,0.1,0c0.1,0,0.1,0,0.2,0c0,0,0.1,0,0.1,0
		c0,0,0.1,0,0.1,0c0.4,0,0.8,0,1.3,0.1l0.1,0c0,0,0.1,0,0.1,0c0.1,0,0.2,0,0.2,0l0.2,0c0.1,0,0.1,0,0.2,0l0.1,0c0,0,0,0,0,0
		c0.1,0,0.2,0,0.3,0c0.1,0,0.3,0,0.4,0.1c0.1,0,0.3,0.1,0.4,0.1c0.1,0,0.3,0.1,0.4,0.1c0.2,0,0.3,0.1,0.5,0.1
		c0.2,0.1,0.4,0.2,0.7,0.3c0.3,0.1,0.6,0.2,0.8,0.4c0.2,0.1,0.4,0.2,0.6,0.3c0.1,0.1,0.2,0.1,0.3,0.2c0.1,0.1,0.2,0.1,0.3,0.2
		c0.2,0.1,0.3,0.2,0.4,0.3c0.1,0.1,0.3,0.2,0.4,0.3c0.1,0.1,0.2,0.2,0.3,0.3c0.1,0.1,0.2,0.1,0.2,0.2c0.1,0.1,0.2,0.2,0.3,0.3
		c0.1,0.1,0.2,0.2,0.3,0.3c0.1,0.1,0.2,0.2,0.2,0.3c0,0.1,0,0.2,0,0.3c0,0.1-0.1,0.2-0.1,0.3c-0.2,0.2-0.3,0.3-0.5,0.5
		c-0.2,0.2-0.4,0.4-0.6,0.6c-0.2,0.1-0.3,0.3-0.5,0.5c-0.1,0.1-0.3,0.3-0.4,0.4c-0.1,0.1-0.1,0.1-0.2,0.2c-0.2,0.2-0.4,0.4-0.7,0.6
		c-0.2,0.2-0.4,0.4-0.6,0.6c-0.1,0.1-0.2,0.2-0.4,0.3c-0.1,0.1-0.2,0.1-0.3,0.2c-0.1,0.1-0.1,0.1-0.2,0.1c-0.1,0-0.2,0-0.2,0
		c-0.1,0-0.2-0.1-0.2-0.2c-0.1,0-0.2-0.1-0.2-0.2c-0.1,0-0.1-0.1-0.2-0.1c-0.3-0.3-0.7-0.5-1.1-0.7c-0.2-0.1-0.3-0.1-0.5-0.2
		c-0.1,0-0.3-0.1-0.3-0.1c-0.1,0-0.3-0.1-0.3-0.1c-0.1,0-0.2,0-0.2,0c-0.2,0-0.3,0-0.4-0.1c0,0-0.1,0-0.1,0c-0.1,0-0.2,0-0.3,0
		c-0.1,0-0.2,0-0.3,0c-0.1,0-0.3,0-0.4,0c0,0-0.1,0-0.1,0c0,0-0.1,0-0.1,0c0,0,0,0-0.1,0c-0.2,0-0.3,0.1-0.4,0.1
		c-0.3,0-0.5,0.1-0.7,0.2c-0.1,0.1-0.2,0.1-0.3,0.1c-0.2,0.1-0.4,0.1-0.5,0.2c-0.1,0.1-0.2,0.1-0.2,0.1c0,0-0.1,0.1-0.2,0.1
		c-0.1,0-0.1,0.1-0.2,0.1c-0.2,0.1-0.3,0.2-0.5,0.3c-0.1,0.1-0.1,0.1-0.2,0.2c-0.1,0.1-0.2,0.1-0.3,0.2c-0.1,0.2-0.3,0.3-0.4,0.5
		c-0.1,0.1-0.2,0.2-0.2,0.4c-0.1,0.2-0.2,0.4-0.3,0.6c-0.1,0.2-0.1,0.4-0.2,0.6c0,0.1-0.1,0.2-0.1,0.3c0,0.1-0.1,0.2-0.1,0.2
		c0,0.1,0,0.2,0,0.3c0,0,0,0.1,0,0.2c0,0,0,0,0,0.1c0,0.3,0,0.6,0,0.9v0.1c0,0,0,0,0,0c0,0.1,0,0.2,0,0.3c0,0.1,0,0.2,0,0.2
		c0,0.1,0,0.1,0.1,0.2c0,0.2,0.1,0.4,0.1,0.5c0.1,0.2,0.1,0.4,0.2,0.5c0.1,0.3,0.2,0.5,0.3,0.7c0.1,0.1,0.1,0.2,0.2,0.4
		c0.1,0.2,0.2,0.4,0.4,0.5c0.1,0.1,0.2,0.2,0.3,0.4c0.1,0.1,0.2,0.2,0.3,0.3c0.1,0,0.1,0.1,0.1,0.1c0.2,0.1,0.4,0.3,0.7,0.4
		c0.1,0.1,0.3,0.2,0.4,0.2c0.1,0.1,0.3,0.1,0.4,0.2c0.2,0,0.3,0.1,0.4,0.1c0.1,0,0.2,0.1,0.3,0.1c0.1,0,0.3,0,0.4,0.1c0,0,0,0,0.1,0
		c0.2,0,0.5,0,0.7,0c0.1,0,0.1,0,0.1,0l0,0c0.1,0,0.3,0,0.3,0c0.1,0,0.2,0,0.3,0c0.1,0,0.1,0,0.2,0c0.2-0.1,0.4-0.1,0.5-0.1
		c0.3-0.1,0.5-0.2,0.8-0.3c0.2-0.1,0.3-0.1,0.5-0.2c0.2-0.1,0.4-0.2,0.6-0.4c0.1-0.1,0.2-0.1,0.3-0.1c0.1,0,0.3,0,0.4,0.1
		c0.1,0.1,0.2,0.1,0.3,0.2c0.1,0.1,0.2,0.3,0.4,0.4c0.1,0.2,0.3,0.4,0.5,0.6c0.2,0.2,0.4,0.4,0.6,0.7c0.2,0.2,0.4,0.5,0.6,0.7
		c0.2,0.2,0.4,0.5,0.6,0.7c0.2,0.2,0.3,0.3,0.5,0.5c0.1,0.1,0.2,0.3,0.4,0.4c0.1,0.1,0.1,0.1,0.2,0.2c0,0.1,0.1,0.2,0.1,0.2
		c0,0.1,0,0.2-0.1,0.2c0,0.1-0.1,0.2-0.2,0.3c-0.2,0.1-0.3,0.3-0.5,0.4c-0.1,0.1-0.2,0.1-0.3,0.2c-0.1,0-0.1,0.1-0.2,0.1
		c-0.3,0.2-0.5,0.3-0.8,0.5c-0.2,0.2-0.4,0.3-0.6,0.4c-0.3,0.2-0.6,0.3-0.9,0.4c-0.3,0.1-0.6,0.2-0.8,0.3c-0.2,0.1-0.5,0.1-0.7,0.2
		c-0.2,0.1-0.3,0.1-0.5,0.1c-0.1,0-0.2,0.1-0.3,0c0,0-0.1,0-0.1,0c-0.2,0-0.3,0-0.4,0c-0.1,0-0.2,0.1-0.3,0c-0.1,0-0.2,0-0.3,0
		c-0.1,0-0.2,0-0.3,0c-0.1,0-0.3,0-0.4,0c-0.3,0.1-0.5,0-0.8,0c-0.3,0-0.5,0-0.8,0c0,0,0,0-0.1,0C465,138.8,464.9,138.8,464.9,138.8
		"/>
	<path class="st1" d="M492.8,141.5c-0.1-0.1-0.1-0.2-0.2-0.3c0-0.2,0.1-0.3,0.1-0.5c0.7-2.7,1.5-5.5,2.3-8.3
		c0.2-0.6,0.3-1.2,0.5-1.8c0.9-3.3,1.8-6.7,2.7-10c0-0.1,0-0.1,0-0.2c0-0.1,0.1-0.2,0.2-0.3c0.1-0.1,0.2-0.2,0.3-0.2
		c0.1,0,0.1,0,0.2,0c0.2,0,0.4,0.1,0.6,0.2c5.4,1.5,10.9,3,16.3,4.5c0.2,0.1,0.4,0.1,0.6,0.2c0.1,0,0.2,0,0.2,0.1c0,0,0.1,0,0.1,0
		c0.1,0.1,0.2,0.1,0.3,0.2c0.1,0.1,0.1,0.2,0.1,0.2c0,0.1,0,0.2,0,0.2c0,0.3-0.2,0.6-0.2,0.9c-0.3,1.3-0.7,2.7-1.1,4.1
		c0,0.2-0.1,0.3-0.1,0.4c-0.1,0.2-0.2,0.3-0.5,0.3c-0.1,0-0.3,0-0.4-0.1c-3.2-0.9-6.4-1.8-9.6-2.6c-0.5-0.1-1-0.3-1.6-0.4
		c-0.1,0-0.3,0-0.4,0c-0.1,0-0.2,0.1-0.3,0.2c-0.1,0.1-0.1,0.2-0.2,0.4c0,0.1,0,0.1-0.1,0.2c0,0.2,0,0.3,0,0.4
		c0,0.1,0.1,0.2,0.2,0.4c0.1,0.1,0.2,0.1,0.3,0.2c2.2,0.6,4.4,1.2,6.5,1.8c0.3,0.1,0.5,0.1,0.8,0.2c0,0,0.1,0,0.1,0
		c0,0,0.1,0,0.1,0.1c0.1,0,0.2,0.1,0.3,0.2c0,0.1,0.1,0.2,0,0.3c0,0.1,0,0.3-0.1,0.4c-0.4,1.4-0.8,2.9-1.2,4.3
		c0,0.1-0.1,0.2-0.2,0.3c-0.1,0.1-0.2,0.2-0.4,0.2c-0.1,0-0.2,0-0.3,0c-1.6-0.4-3.1-0.8-4.7-1.3c-0.9-0.2-1.8-0.5-2.6-0.7
		c-0.1,0-0.1,0-0.2,0l0,0c-0.1,0-0.3,0-0.4,0c-0.1,0-0.1,0.1-0.2,0.1c-0.1,0.1-0.2,0.2-0.2,0.3c0,0.1-0.1,0.2-0.1,0.3
		c0,0.1,0,0.2,0,0.3c0,0.1,0.1,0.2,0.2,0.3c0.1,0.1,0.2,0.2,0.3,0.2c0.1,0,0.1,0,0.2,0.1c3.7,1,7.4,2,11.1,3c0.1,0,0.2,0.1,0.3,0.2
		c0.1,0.1,0.2,0.2,0.2,0.4c0,0.1,0,0.1,0,0.2c-0.1,0.3-0.2,0.7-0.3,1c-0.3,1.3-0.7,2.7-1.1,4.1c0,0.1-0.1,0.2-0.2,0.3
		c-0.1,0.1-0.2,0.2-0.4,0.2c-0.1,0-0.3,0-0.4,0c-0.1,0-0.3-0.1-0.4-0.1c-5.7-1.5-11.3-3.1-17-4.6c-0.1,0-0.2,0-0.2-0.1
		C493,141.6,492.9,141.6,492.8,141.5"/>
	<path class="st1" d="M547.9,163.5c0-0.1-0.1-0.2-0.1-0.3c0-0.1,0.1-0.3,0.2-0.4c0.2-0.3,0.3-0.5,0.5-0.8c2.2-3.5,4.5-7.1,6.7-10.6
		c0-0.1,0.1-0.1,0.1-0.2c0,0,0,0,0-0.1c0.1-0.2,0.1-0.5-0.1-0.6c-0.1-0.1-0.1-0.2-0.2-0.2c-0.7-0.4-1.3-0.8-2-1.2
		c-0.1-0.1-0.3-0.2-0.3-0.3c-0.1-0.1-0.1-0.3-0.1-0.4c0-0.1,0.1-0.3,0.1-0.4c0.4-0.6,0.8-1.3,1.2-1.9c0.1-0.1,0.1-0.2,0.2-0.3
		c0.1-0.1,0.3-0.1,0.5-0.1c0.1,0,0.2,0.1,0.3,0.1l0,0c0.1,0,0.2,0.1,0.3,0.1c0.1,0,0.2,0.1,0.3,0.1c0.2,0.1,0.4,0.1,0.5,0.1
		c0.2,0,0.4,0.1,0.6,0.1c0.2,0,0.4,0,0.6,0c0.2,0,0.3,0,0.5-0.1c0.1,0,0.2,0,0.2,0c0.2,0,0.4-0.1,0.6-0.2c0.3-0.1,0.5-0.2,0.8-0.3
		c0.3-0.1,0.5-0.3,0.8-0.5c0.1-0.1,0.3-0.2,0.5-0.2c0.1,0,0.2,0,0.3,0c0.1,0,0.2,0.1,0.2,0.1c0.1,0.1,0.2,0.1,0.2,0.1
		c0.1,0,0.1,0.1,0.1,0.1c0.7,0.4,1.4,0.9,2.1,1.3c0.2,0.2,0.5,0.3,0.7,0.5c0.1,0.1,0.2,0.1,0.3,0.2c0.1,0.2,0.1,0.3,0,0.6
		c-0.1,0.2-0.1,0.3-0.2,0.4c-1.8,2.9-3.6,5.7-5.4,8.6c-1.8,2.9-3.6,5.7-5.4,8.5c-0.1,0.1-0.1,0.2-0.2,0.3c0,0.1-0.1,0.1-0.1,0.2
		c-0.1,0.1-0.2,0.3-0.3,0.4c-0.1,0.1-0.2,0.2-0.3,0.2c-0.1,0-0.2,0-0.3,0c0,0-0.1,0-0.2,0c-0.1-0.1-0.3-0.2-0.4-0.3
		c-1.3-0.8-2.6-1.7-3.9-2.5C548,163.8,547.9,163.7,547.9,163.5"/>
	<path class="st1" d="M566.3,176.7c-0.1-0.1,0-0.2,0-0.3l0,0c0.1-0.1,0.3-0.2,0.4-0.2c0.2,0,0.3-0.1,0.4-0.1c0.2,0,0.3-0.1,0.5-0.1
		c0.2-0.1,0.4-0.1,0.6-0.2c0.2,0,0.3-0.1,0.4-0.1c0.2,0,0.4-0.1,0.6-0.2c0.2,0,0.3-0.1,0.4-0.1c0.2,0,0.3-0.1,0.4-0.1
		c0.1,0,0.2,0,0.3-0.1c0.2-0.1,0.4-0.1,0.6-0.2c0.2,0,0.4-0.1,0.6-0.1c0.2,0,0.3-0.1,0.5-0.1c0.1-0.1,0.3-0.1,0.4-0.1
		c0.1,0,0.2,0,0.2-0.1c0.2,0,0.3-0.1,0.5-0.1c0.1,0,0.2-0.1,0.3-0.1c0.1,0,0.2-0.1,0.2-0.2c0-0.1,0.1-0.2,0-0.2
		c0-0.2-0.1-0.3-0.2-0.4c0,0-0.1-0.1-0.1-0.2c0,0-0.1-0.1-0.1-0.1c-0.1-0.1-0.1-0.3-0.3-0.4c-0.1-0.1-0.1-0.2-0.2-0.4
		c-0.1-0.2-0.2-0.4-0.3-0.6c-0.1-0.1-0.1-0.2-0.2-0.4c-0.1-0.2-0.1-0.5-0.2-0.7c-0.1-0.2-0.1-0.4-0.1-0.5c0-0.1,0-0.2,0-0.4
		c0-0.2,0-0.3,0-0.5c0-0.1,0-0.3,0-0.4c0-0.1,0-0.2,0-0.3c0-0.2,0-0.4,0.1-0.7c0-0.3,0.1-0.6,0.2-0.8c0.1-0.4,0.2-0.7,0.3-1.1
		c0.1-0.2,0.1-0.3,0.2-0.5c0-0.1,0.1-0.2,0.1-0.3c0.1-0.1,0.1-0.3,0.2-0.4c0.1-0.1,0.1-0.2,0.2-0.2c0,0,0.1-0.1,0.1-0.1
		c0,0,0,0,0.1-0.1c0,0,0.1-0.1,0.1-0.2l0,0c0.3-0.3,0.6-0.6,0.8-0.9c0,0,0-0.1,0.1-0.1c0,0,0,0,0.1-0.1c0.1-0.1,0.1-0.1,0.2-0.2
		c0,0,0,0,0,0c0-0.1,0.1-0.1,0.2-0.1l0,0c0.1-0.1,0.2-0.1,0.3-0.2c0.1-0.1,0.1-0.1,0.2-0.2c0.2-0.1,0.4-0.3,0.6-0.4
		c0.1-0.1,0.2-0.1,0.4-0.2c0.2-0.1,0.4-0.2,0.7-0.3c0.2-0.1,0.3-0.1,0.5-0.2c0.1,0,0.3-0.1,0.4-0.1c0.2,0,0.4-0.1,0.6-0.1
		c0.2,0,0.3,0,0.5-0.1c0.2,0,0.4-0.1,0.5,0c0.2,0,0.4,0,0.6,0c0.1,0,0.2,0,0.3,0c0.1,0,0.2,0,0.2,0c0.2,0,0.3,0.1,0.5,0.1
		c0.2,0,0.4,0.1,0.6,0.1c0.3,0.1,0.6,0.2,0.8,0.2c0.2,0.1,0.5,0.2,0.7,0.3c0.1,0,0.2,0.1,0.4,0.2c0.1,0.1,0.2,0.1,0.3,0.1
		c0.1,0,0.1,0.1,0.2,0.1c0.1,0,0.2,0.1,0.3,0.1c0,0,0,0,0,0c0.1,0.1,0.1,0.1,0.2,0.2c0.1,0.1,0.1,0.1,0.2,0.2c0,0,0.1,0,0.1,0.1
		c0,0,0.1,0,0.1,0.1c0,0,0,0,0.1,0c0,0,0.1,0.1,0.1,0.1c0,0,0.1,0.1,0.1,0.1c0,0,0,0,0,0c0.3,0.2,0.5,0.4,0.8,0.7c0,0,0,0,0.1,0.1
		c0,0,0,0,0,0c0.1,0.1,0.1,0.1,0.2,0.1c0,0.1,0.1,0.1,0.1,0.2c0,0,0,0,0,0c0.1,0.1,0.1,0.1,0.1,0.2l0,0c0.1,0.1,0.1,0.2,0.2,0.2
		c0.1,0.1,0.2,0.2,0.3,0.4c0,0.1,0.1,0.1,0.1,0.2c0.1,0.1,0.2,0.2,0.3,0.4c0,0.1,0.1,0.1,0.1,0.2c0.1,0.2,0.2,0.3,0.2,0.4
		c0.2,0.3,0.3,0.6,0.4,0.9c0.1,0.2,0.2,0.4,0.2,0.6c0.1,0.2,0.1,0.4,0.1,0.5c0,0.2,0.1,0.4,0.1,0.5c0,0.2,0.1,0.5,0.1,0.7
		c0,0.1,0,0.2,0,0.3c0,0.1,0,0.2,0,0.3c0,0.1,0,0.3,0,0.4c0,0.2,0,0.3,0,0.5c-0.1,0.4-0.1,0.8-0.3,1.2c0,0.1-0.1,0.3-0.1,0.5
		c0,0.1-0.1,0.3-0.2,0.4c0,0.1-0.1,0.2-0.1,0.3c0,0.1-0.1,0.2-0.1,0.3c-0.1,0.1-0.1,0.2-0.2,0.3c-0.1,0.1-0.1,0.1-0.1,0.2
		c0,0,0,0.1,0,0.1l0,0c-0.1,0.1-0.2,0.3-0.3,0.4c0,0,0,0-0.1,0.1c0,0,0,0,0,0.1c-0.3,0.3-0.6,0.6-0.8,0.9c0,0,0,0-0.1,0.1
		c0,0,0,0,0,0c0,0.1-0.1,0.1-0.1,0.1c0,0.1-0.1,0.1-0.1,0.1l0,0c-0.1,0.1-0.2,0.2-0.3,0.3c-0.1,0.1-0.2,0.1-0.2,0.2l0,0
		c-0.1,0.1-0.2,0.1-0.3,0.2c0,0.1-0.1,0.1-0.2,0.1c0,0,0,0-0.1,0.1c-0.1,0.1-0.2,0.1-0.3,0.2c0,0.1-0.1,0.1-0.2,0.1
		c-0.1,0.1-0.3,0.2-0.4,0.3c-0.3,0.2-0.6,0.3-0.9,0.4c-0.3,0.1-0.6,0.2-0.8,0.3c-0.3,0.1-0.6,0.2-0.9,0.3c-0.3,0.1-0.5,0.1-0.8,0.3
		c-0.1,0-0.3,0.1-0.4,0.1c-0.2,0.1-0.4,0.1-0.5,0.2c-0.2,0-0.4,0.1-0.6,0.2c-0.2,0-0.3,0.1-0.4,0.1c-0.2,0-0.3,0.1-0.4,0.1
		c-0.1,0.1-0.3,0.1-0.4,0.1c-0.1,0-0.2,0.1-0.3,0.1c-0.1,0-0.2,0.1-0.3,0.1c-0.2,0.1-0.4,0.1-0.6,0.1c-0.1,0.1-0.3,0.1-0.4,0.1
		c-0.2,0.1-0.4,0.1-0.7,0.2c-0.2,0-0.3,0.1-0.5,0.1c-0.1,0.1-0.3,0.1-0.4,0.1c-0.2,0.1-0.4,0.1-0.7,0.2c-0.3,0-0.5,0.1-0.8,0.2
		c-0.2,0.1-0.4,0.1-0.6,0.2c-0.2,0.1-0.5,0.1-0.8,0.2c-0.1,0-0.3,0-0.5-0.1c0,0-0.1,0-0.2-0.1c-0.1-0.1-0.2-0.2-0.3-0.3
		c-0.7-0.6-1.4-1.3-2.2-1.9c-0.8-0.7-1.6-1.4-2.4-2.1C566.4,176.9,566.4,176.8,566.3,176.7 M578.9,171.1c0.1,0.1,0.1,0.1,0.2,0.2
		c0.1,0.2,0.3,0.3,0.5,0.4c0.1,0,0.2,0.1,0.3,0.1c0.3,0.1,0.6,0.2,0.9,0.1c0,0,0.1,0,0.1,0c0.1,0,0.3,0,0.4-0.1
		c0.2-0.1,0.4-0.2,0.7-0.3c0.1-0.1,0.2-0.1,0.3-0.3c0,0,0,0,0,0c0-0.1,0.1-0.1,0.1-0.1c0.1-0.1,0.1-0.1,0.2-0.2
		c0.1-0.1,0.1-0.2,0.2-0.3c0-0.1,0.1-0.1,0.1-0.2c0-0.1,0.1-0.2,0.1-0.3c0-0.1,0-0.2,0.1-0.3c0-0.2,0-0.4,0-0.6c0-0.2,0-0.3-0.1-0.4
		c-0.1-0.3-0.3-0.5-0.5-0.7c0,0,0,0,0-0.1c0,0-0.1,0-0.1-0.1c-0.1-0.1-0.2-0.2-0.3-0.3c0,0,0,0-0.1-0.1c0,0-0.1,0-0.1,0
		c0-0.1-0.1-0.1-0.2-0.1c-0.1-0.1-0.2-0.1-0.3-0.2c-0.2-0.1-0.4-0.1-0.6-0.1c-0.2,0-0.3,0-0.4,0c-0.2,0-0.4,0.1-0.6,0.2
		c-0.1,0.1-0.2,0.1-0.3,0.2c-0.1,0.1-0.2,0.1-0.2,0.2l0,0c-0.1,0.1-0.2,0.1-0.3,0.2c0,0.1-0.1,0.1-0.1,0.1c0,0,0,0,0,0.1
		c0,0-0.1,0.1-0.1,0.1c0,0,0,0,0,0.1c-0.1,0.1-0.1,0.2-0.1,0.3c-0.1,0.3-0.2,0.6-0.2,0.9c0,0.3,0.1,0.6,0.2,0.9
		c0.1,0.2,0.2,0.3,0.3,0.5C578.8,171,578.8,171,578.9,171.1C578.8,171,578.9,171.1,578.9,171.1"/>
	<path class="st1" d="M590.6,202.4c-0.1-0.1-0.1-0.1-0.2-0.2c0,0,0,0,0-0.1c0-0.1-0.1-0.1-0.1-0.2c0-0.1-0.1-0.2-0.1-0.3
		c0-0.1-0.1-0.1-0.1-0.2c0-0.1-0.1-0.1-0.1-0.2c0-0.1-0.1-0.1-0.1-0.1c-0.1-0.1-0.1-0.2-0.1-0.2c-0.1-0.1-0.1-0.2-0.2-0.4
		c-0.1-0.1-0.1-0.2-0.1-0.4c-0.1-0.2-0.1-0.5-0.2-0.7c0-0.2-0.1-0.3-0.1-0.5c-0.1-0.3-0.1-0.6-0.1-0.8c0-0.3,0-0.6,0-0.8
		c0-0.2,0-0.3,0-0.4c0-0.2,0-0.4,0.1-0.6c0-0.2,0.1-0.4,0.1-0.6c0.1-0.3,0.2-0.6,0.3-0.8c0.1-0.3,0.2-0.6,0.4-0.9
		c0.1-0.2,0.2-0.4,0.3-0.6c0.1-0.1,0.1-0.2,0.2-0.4c0.1-0.1,0.2-0.2,0.2-0.3c0.1-0.1,0.2-0.3,0.3-0.4c0,0,0.1-0.1,0.1-0.1
		c0,0,0,0,0-0.1c0,0,0.1,0,0.1-0.1c0.1,0,0.1-0.1,0.1-0.1c0-0.1,0.1-0.1,0.2-0.1c0,0,0.1-0.1,0.1-0.1c0,0,0.1,0,0.1-0.1
		c0.3-0.3,0.7-0.5,1-0.8c0,0,0,0,0.1-0.1c0,0,0.1,0,0.1,0c0.1-0.1,0.1-0.1,0.3-0.2c0,0,0,0,0,0c0.1,0,0.1-0.1,0.1-0.1c0,0,0,0,0,0
		c0.1-0.1,0.2-0.1,0.2-0.2c0.1,0,0.1-0.1,0.2-0.1c0,0,0.1,0,0.1,0c0.1-0.1,0.3-0.2,0.4-0.2c0.1-0.1,0.3-0.1,0.4-0.2
		c0.1-0.1,0.3-0.1,0.5-0.2c0.2-0.1,0.5-0.2,0.7-0.2c0.2-0.1,0.3-0.1,0.5-0.1c0.2,0,0.4-0.1,0.5-0.1c0.2,0,0.5-0.1,0.7-0.1
		c0.1,0,0.2,0,0.3,0c0.2,0,0.4-0.1,0.7-0.1c0.2,0,0.3,0,0.5-0.1c0.2,0,0.4,0,0.6-0.1c0.3,0,0.6-0.1,1-0.1c0.2,0,0.4,0,0.6-0.1
		c0.1,0,0.3,0,0.4,0c0.1,0,0.3,0,0.4,0c0.3,0,0.6,0,0.8-0.1c0.3,0,0.6-0.1,0.9-0.1c0.3,0,0.5,0,0.8-0.1c0.2,0,0.4,0,0.6-0.1
		c0.2,0,0.4,0,0.6,0c0.3,0,0.5-0.1,0.8-0.1c0.2,0,0.4,0,0.6,0c0.2,0,0.4-0.1,0.7-0.1c0.2,0,0.4,0,0.6,0.1c0.1,0,0.1,0.1,0.2,0.1
		c0.2,0.2,0.4,0.5,0.6,0.7c0.5,0.6,1,1.2,1.5,1.9c0.6,0.8,1.3,1.6,1.9,2.4c0.1,0.1,0.1,0.2,0.2,0.3c0.1,0.2,0,0.3-0.2,0.4
		c-0.1,0.1-0.2,0.1-0.4,0.1c-0.2,0-0.3,0-0.5,0.1c-0.3,0-0.6,0-0.9,0.1c-0.1,0-0.3,0.1-0.4,0c-0.1,0-0.2,0-0.2,0c-0.1,0-0.3,0-0.5,0
		c-0.1,0-0.2,0-0.3,0.1s-0.3,0-0.4,0c-0.2,0-0.3,0-0.5,0c-0.1,0-0.2,0-0.3,0.1c-0.2,0-0.5,0-0.7,0.1c-0.2,0-0.4,0-0.6,0.1
		c-0.3,0-0.6,0.1-0.9,0.1c-0.2,0-0.4,0-0.6,0.1c-0.1,0-0.2,0-0.2,0.1c-0.2,0.1-0.3,0.3-0.2,0.5c0,0.1,0,0.1,0.1,0.2
		c0,0.1,0.1,0.2,0.1,0.3c0.1,0.1,0.1,0.3,0.2,0.5c0.1,0.1,0.1,0.2,0.1,0.3c0,0.2,0.1,0.3,0.1,0.5c0.1,0.3,0.1,0.5,0.2,0.8
		c0.1,0.3,0.1,0.6,0.1,1c0,0.3,0,0.6,0,0.8c0,0.2,0,0.3-0.1,0.5c0,0.2-0.1,0.3-0.1,0.5c0,0.1-0.1,0.2-0.1,0.3
		c-0.1,0.2-0.1,0.4-0.2,0.6c-0.1,0.2-0.2,0.5-0.3,0.7c-0.1,0.2-0.3,0.5-0.4,0.7c-0.1,0.1-0.2,0.3-0.3,0.4c-0.1,0.1-0.2,0.2-0.2,0.3
		c-0.1,0-0.1,0.1-0.1,0.1c0,0.1-0.1,0.1-0.1,0.2c-0.1,0.1-0.1,0.1-0.2,0.2c-0.1,0.1-0.1,0.2-0.2,0.3l-0.1,0.1c0,0,0,0,0,0.1
		c-0.1,0.1-0.2,0.1-0.3,0.2c0,0,0,0,0,0c-0.3,0.2-0.6,0.5-0.9,0.7c-0.1,0-0.1,0.1-0.1,0.1c0,0-0.1,0-0.1,0.1c-0.1,0-0.1,0.1-0.2,0.2
		c-0.1,0.1-0.2,0.1-0.3,0.2c-0.1,0-0.1,0.1-0.2,0.1l0,0c-0.1,0.1-0.2,0.1-0.3,0.1c-0.1,0-0.1,0-0.1,0.1c-0.2,0.1-0.4,0.1-0.6,0.2
		c-0.4,0.1-0.7,0.2-1.1,0.3c-0.2,0.1-0.3,0.1-0.5,0.1c-0.2,0-0.4,0.1-0.6,0.1c-0.3,0-0.5,0-0.8,0c-0.2,0-0.5-0.1-0.7-0.1
		c-0.1,0-0.3,0-0.5-0.1c-0.1,0-0.2-0.1-0.4-0.1c-0.3-0.1-0.6-0.2-0.9-0.3c-0.2-0.1-0.4-0.1-0.5-0.2c-0.1-0.1-0.3-0.1-0.4-0.2
		c-0.3-0.1-0.5-0.3-0.7-0.4c-0.2-0.1-0.4-0.3-0.6-0.4c-0.1-0.1-0.2-0.2-0.3-0.3c0-0.1-0.1-0.1-0.2-0.2c-0.1,0-0.1-0.1-0.1-0.1
		c-0.1-0.1-0.1-0.1-0.2-0.2c0,0,0-0.1-0.1-0.1l0,0c-0.1-0.1-0.2-0.2-0.3-0.4c0,0-0.1-0.1-0.1-0.1c0,0,0-0.1,0-0.1
		c-0.3-0.4-0.6-0.8-0.9-1.1C590.6,202.6,590.6,202.6,590.6,202.4C590.6,202.5,590.6,202.5,590.6,202.4 M595.6,199.2
		c0,0.1,0.1,0.2,0.2,0.2c0.1,0.1,0.1,0.2,0.2,0.3c0.1,0,0.1,0.1,0.2,0.2c0.2,0.1,0.4,0.3,0.6,0.4c0.2,0.1,0.4,0.2,0.6,0.2
		c0.1,0,0.3,0,0.4,0c0.1,0,0.3,0,0.4-0.1c0.1-0.1,0.2-0.1,0.4-0.1c0.1,0,0.1-0.1,0.2-0.1c0.1,0,0.1-0.1,0.2-0.1c0,0,0,0,0.1,0
		c0.1-0.1,0.2-0.1,0.3-0.2c0.1-0.1,0.2-0.1,0.2-0.2c0.1,0,0.1-0.1,0.1-0.1c0.1-0.2,0.3-0.5,0.3-0.7c0-0.2,0.1-0.4,0.1-0.6
		c0-0.2,0-0.4-0.1-0.5c-0.1-0.1-0.1-0.3-0.2-0.4c0-0.1-0.1-0.2-0.1-0.3c0,0,0-0.1,0-0.1c0,0,0-0.1,0-0.1c-0.1-0.1-0.1-0.2-0.2-0.3
		c0,0,0,0-0.1,0c0,0-0.1-0.1-0.1-0.1c-0.1-0.1-0.1-0.1-0.2-0.2c-0.1-0.1-0.2-0.2-0.4-0.3c-0.1-0.1-0.3-0.1-0.4-0.1
		c-0.2,0-0.4-0.1-0.5-0.1c-0.2,0-0.4,0-0.6,0.1c-0.2,0.1-0.4,0.1-0.5,0.2c0,0,0,0-0.1,0c0,0-0.1,0-0.1,0c-0.1,0-0.1,0.1-0.1,0.1
		c-0.1,0.1-0.2,0.2-0.3,0.2c0,0-0.1,0.1-0.1,0.1c-0.1,0.1-0.1,0.1-0.2,0.2c-0.1,0.1-0.1,0.2-0.2,0.3c-0.1,0.2-0.2,0.4-0.2,0.6
		c0,0.1,0,0.2-0.1,0.3c0,0.2,0,0.4,0,0.6c0,0,0,0.1,0,0.1c0,0.1,0,0.2,0.1,0.3C595.4,198.9,595.5,199.1,595.6,199.2L595.6,199.2z"/>
	<path class="st1" d="M606.6,226.7C606.6,226.7,606.6,226.7,606.6,226.7c-0.1-0.1-0.1-0.3-0.2-0.4c0,0,0-0.1,0-0.1c0,0,0-0.1,0-0.1
		l0,0c0-0.1-0.1-0.2-0.1-0.3c0-0.1,0-0.2-0.1-0.3c0,0,0-0.1-0.1-0.2c-0.1-0.2-0.1-0.4-0.1-0.5c0-0.2-0.1-0.4-0.1-0.6
		c0-0.1,0-0.2,0-0.3c0-0.2,0-0.4,0-0.6c0-0.2,0-0.4,0-0.6c0-0.2,0-0.4,0.1-0.6c0-0.1,0.1-0.2,0.1-0.4c0-0.2,0.1-0.3,0.1-0.4
		c0-0.2,0.1-0.3,0.2-0.5c0-0.1,0.1-0.2,0.1-0.3c0.1-0.3,0.3-0.6,0.5-0.9c0.2-0.4,0.4-0.7,0.6-1c0.1-0.1,0.2-0.3,0.3-0.4
		c0,0,0-0.1,0.1-0.1c0.1-0.1,0.3-0.1,0.4-0.1c0.2,0.1,0.3,0.2,0.4,0.3c0.1,0.1,0.2,0.2,0.3,0.3c0.1,0.1,0.2,0.2,0.3,0.3
		c0.1,0,0.1,0.1,0.1,0.1c0.2,0.2,0.4,0.3,0.6,0.5c0.1,0.1,0.3,0.3,0.4,0.4c0.2,0.2,0.4,0.3,0.6,0.5c0.2,0.2,0.4,0.4,0.6,0.6
		c0.2,0.2,0.5,0.4,0.7,0.6c0.1,0.1,0.2,0.2,0.3,0.3c0,0.1,0.1,0.1,0.1,0.2c0,0,0,0.1,0,0.1c0,0.1-0.1,0.2-0.1,0.3
		c-0.1,0.1-0.1,0.2-0.2,0.2c-0.2,0.2-0.3,0.5-0.4,0.8c0,0,0,0.1,0,0.2c0,0.1,0,0.2,0,0.3c0,0.1,0.1,0.3,0.1,0.4l0,0.1
		c0,0.1,0.1,0.1,0.1,0.1c0,0,0,0.1,0,0.1c0,0.1,0.1,0.1,0.1,0.2c0,0,0,0.1,0.1,0.1c0,0,0,0,0,0.1c0.2,0.3,0.4,0.5,0.8,0.7
		c0.1,0.1,0.3,0.1,0.4,0.2c0.2,0,0.4,0,0.6,0c0.1,0,0.1,0,0.2,0c0.1,0,0.2,0,0.2-0.1c0.1,0,0.2-0.1,0.3-0.1c0,0,0,0,0.1,0
		c0.1-0.1,0.2-0.1,0.3-0.2l0,0c0.1,0,0.2-0.1,0.3-0.2c0.1-0.1,0.2-0.2,0.3-0.4c0-0.1,0.1-0.1,0.1-0.2c0-0.1,0.1-0.1,0.1-0.2
		c0.1-0.2,0.1-0.4,0.1-0.7c0-0.1,0-0.3,0-0.5c0-0.2,0-0.3-0.1-0.5c0,0,0-0.1,0-0.1c0-0.1-0.1-0.2-0.1-0.4c0-0.1-0.1-0.1-0.1-0.2
		c0-0.1-0.1-0.2-0.2-0.4c-0.1-0.3-0.3-0.5-0.4-0.8c-0.1-0.3-0.3-0.5-0.4-0.8c-0.1-0.2-0.3-0.5-0.4-0.7c-0.5-0.8-0.9-1.7-1.4-2.5
		c-0.1-0.1-0.1-0.2-0.1-0.4c0-0.2,0-0.3,0.1-0.4c0.1,0,0.1-0.1,0.2-0.1c0.2-0.2,0.5-0.3,0.8-0.5c0.3-0.1,0.4-0.2,0.7-0.3
		c0.2-0.1,0.5-0.2,0.7-0.3c0.1,0,0.1-0.1,0.2-0.1c0,0,0.1,0,0.1,0c0.4-0.2,0.7-0.4,1.1-0.6c0.1,0,0.1-0.1,0.1-0.1
		c0.1,0,0.2-0.1,0.2-0.1c0.3-0.2,0.7-0.4,1-0.6c0.1-0.1,0.2-0.1,0.3-0.1c0,0,0,0,0.1,0c0.1-0.1,0.3-0.2,0.4-0.2
		c0.1-0.1,0.3-0.2,0.4-0.2c0.2-0.1,0.4-0.2,0.6-0.3c0.3-0.1,0.5-0.3,0.7-0.4c0.2-0.1,0.5-0.2,0.7-0.4c0.1,0,0.1,0,0.2,0l0.1,0
		c0.4-0.2,0.7-0.4,1.1-0.6c0.1,0,0.1,0,0.2,0c0,0,0.1,0,0.1,0c0.2-0.1,0.4-0.2,0.7-0.3c0.2-0.1,0.3-0.1,0.5,0
		c0.1,0.1,0.2,0.1,0.2,0.2c0.1,0.1,0.2,0.3,0.3,0.5c1,1.8,2,3.7,3,5.5c1,1.9,2.1,3.8,3.1,5.7c0.1,0.1,0.2,0.3,0.2,0.4
		c0,0.1,0,0.3-0.1,0.4c-0.1,0.1-0.2,0.2-0.4,0.3c-1,0.5-1.9,1.1-2.9,1.6c-0.3,0.1-0.5,0.3-0.8,0.4c-0.1,0.1-0.3,0.1-0.4,0.2
		c-0.1,0-0.2,0-0.4-0.1c-0.1-0.1-0.2-0.3-0.3-0.4c-1-1.8-2-3.7-2.9-5.5c-0.1-0.1-0.2-0.3-0.2-0.4c0-0.1,0-0.1-0.1-0.2
		c0,0-0.1,0-0.1,0c-0.1-0.2-0.3-0.3-0.5-0.3c-0.1,0-0.2,0.1-0.3,0.1c-0.1,0.1-0.2,0.2-0.2,0.3c0,0.1,0,0.2,0,0.3
		c0.1,0.2,0.1,0.3,0.2,0.5c0.1,0.1,0.1,0.2,0.2,0.3c0,0.1,0.1,0.1,0.1,0.1c0,0,0,0.1,0,0.1c0,0.1,0.1,0.1,0.1,0.2c0,0,0,0.1,0.1,0.1
		c0,0,0,0,0,0c0.1,0.1,0.1,0.2,0.2,0.4c0,0.1,0.1,0.1,0.1,0.2c0,0.1,0,0.1,0.1,0.2c0.1,0.2,0.1,0.3,0.1,0.4c0,0.1,0.1,0.3,0.1,0.4
		c0,0.1,0.1,0.3,0.1,0.4c0,0.1,0.1,0.3,0.1,0.4c0,0.1,0,0.3,0,0.4c0,0.1,0,0.3,0,0.5c0,0.3,0,0.6-0.1,1c0,0.2-0.1,0.4-0.1,0.7
		c-0.1,0.2-0.1,0.5-0.2,0.7c-0.1,0.3-0.2,0.5-0.3,0.7c-0.1,0.2-0.2,0.4-0.3,0.5c-0.1,0.2-0.3,0.4-0.5,0.6c0,0.1-0.1,0.1-0.1,0.2
		c-0.1,0.1-0.3,0.3-0.4,0.5c-0.1,0.1-0.3,0.3-0.4,0.4c-0.1,0.1-0.2,0.2-0.3,0.3c-0.1,0.1-0.1,0.1-0.2,0.2c-0.1,0-0.2,0.1-0.2,0.1
		c-0.1,0.1-0.2,0.1-0.3,0.2c0,0-0.1,0-0.1,0c-0.1,0-0.2,0.1-0.2,0.2c0,0,0,0-0.1,0c-0.4,0.2-0.7,0.4-1.1,0.6c0,0-0.1,0-0.1,0
		c0,0-0.1,0-0.1,0c-0.1,0-0.2,0.1-0.3,0.1c0,0-0.1,0-0.1,0c-0.1,0-0.1,0-0.2,0l0,0c-0.1,0-0.2,0.1-0.3,0.1c-0.1,0-0.1,0-0.2,0.1
		c-0.1,0-0.2,0-0.3,0.1c-0.1,0-0.2,0.1-0.3,0.1c-0.2,0-0.3,0.1-0.5,0.1c-0.2,0-0.4,0.1-0.6,0.1c-0.2,0-0.5,0-0.7,0
		c-0.2,0-0.5,0-0.7,0c-0.2,0-0.4-0.1-0.6-0.1c-0.2,0-0.3-0.1-0.5-0.1c-0.3-0.1-0.6-0.1-0.9-0.2c-0.2-0.1-0.5-0.2-0.7-0.3
		c-0.2-0.1-0.4-0.2-0.6-0.3c-0.2-0.1-0.4-0.2-0.6-0.4c-0.1-0.1-0.3-0.2-0.4-0.3c-0.2-0.2-0.5-0.4-0.7-0.6c-0.2-0.2-0.4-0.4-0.6-0.6
		c-0.1-0.1-0.1-0.2-0.2-0.3c-0.1-0.1-0.1-0.2-0.2-0.3c-0.1-0.1-0.1-0.2-0.2-0.2c0,0,0,0-0.1,0c0-0.1-0.1-0.1-0.1-0.2
		c-0.1,0-0.1-0.1-0.1-0.2c0,0,0-0.1-0.1-0.1c0,0,0,0-0.1,0c-0.2-0.5-0.5-0.9-0.7-1.4C606.6,226.8,606.6,226.7,606.6,226.7"/>
</g>
</svg>
